# xmcd CD database file
#
# Track frame offsets:
#	150
#	23398
#	50342
#	57558
#
# Disc length: 1079 seconds
#
# Revision: 0
# Processed by: cddbd v1.5PL3 Copyright (c) Steve Scherf et al.
# Submitted via: CDex 1.51
#
DISCID=29043504
DTITLE=YeLLOW Generation - 夜空に咲く花 〜eternal place〜
DYEAR=2003
DGENRE=JPop
TTITLE0=夜空に咲く花 〜eternal place〜
TTITLE1=・・・by my side
TTITLE2=君がいたから 〜eternal way〜 (朗読)
TTITLE3=夜空に咲く花 〜eternal place〜 less vocal
EXTD=YEAR: 2003
EXTT0=
EXTT1=
EXTT2=
EXTT3=
PLAYORDER=
